<svg xmlns="http://www.w3.org/2000/svg" version="1.1" xmlns:xlink="http://www.w3.org/1999/xlink" width="2000" height="224" viewBox="0 0 2000 224"><svg xml:space="preserve" width="2000" height="224" data-version="2" data-id="lg_u2PBE33kOmFMwGCCPi" viewBox="0 0 187 224" x="0" y="0"><rect width="100%" height="100%" fill="transparent"></rect><rect width="100" height="100" x="-50" y="-50" fill="#7c7c7c" rx="21" ry="21" transform="translate(93.5 93.524)scale(1.8092)"></rect><path fill="#ffffff" d="M92.975 37.336c-30.784 0-55.74 24.956-55.74 55.74s24.956 55.74 55.74 55.74 55.74-24.956 55.74-55.74-24.956-55.74-55.74-55.74m0 15.786c22.066 0 39.954 17.888 39.954 39.954s-17.888 39.954-39.954 39.954-39.954-17.888-39.954-39.954 17.888-39.954 39.954-39.954m0 6.655c-18.394 0-33.305 14.91-33.305 33.305s14.91 33.304 33.305 33.304 33.305-14.91 33.305-33.304-14.91-33.305-33.305-33.305m0 10.724a22.586 22.586 0 1 1-.011 45.16c-12.275-.275-22.082-10.307-22.079-22.585.004-12.278 9.816-22.305 22.09-22.575"></path><path fill="#4f4f4f" d="m47.605 191.555-1.64-.19.03-.46h7.53q3.2 0 4.93 1.39 1.74 1.4 1.74 4.16 0 1.8-1.38 3.75t-2.59 2.51l5.73 9.33 1.52.09q0 .03-.03.47l-3.38.03-5.89-9.55h-4.12v8.93l2.17.12q0 .03-.03.47l-6.23.03.03-.43 1.61-.22q.22-.03.34-.28v-19.84q-.09-.28-.34-.31m5.77-.19h-3.32v11.26h5.3q1.61-1.83 2.17-3.24.56-1.41.56-2.75 0-2.6-1.21-3.93-1.21-1.34-3.5-1.34m21.88 20.06h-.09q-2.79 1.3-5.42 1.3-4.13 0-4.38-3.25-.03-.22-.03-.41 0-2.38 3.13-3.19 1.86-.4 6.7-.96v-2.73q0-1.3-.31-2.23-.31-.93-.68-1.38-.37-.45-.96-.7-.75-.31-1.66-.31-.92 0-2.09.47-1.71.71-3.04 1.8l-.13 2.41-.58.16v-3.75l.31-.13q2.41-1.05 3.68-1.27 1.28-.21 1.86-.23.59-.01 1.14.02.54.03 1.41.28.86.24 1.5.69.64.45 1.1 1.35.47.9.47 2.14v9.49q0 .96.49.96l1.89.09-.03.47q-1.73.24-3.1.24-.37-.03-.77-.38-.41-.36-.41-.95m-4.96.81q2.3 0 4.87-1.62v-5.11q-4.65.15-5.84.54-1.2.39-1.65 1.21-.45.82-.45 1.63v.31q.1 1.61.97 2.32.86.72 2.1.72m15.97-13.86v13.61l2.32.15q0 .03-.03.47l-6.2.03q0-.28.03-.43l1.62-.22q.18 0 .24-.28v-13.61q-.06-.22-.18-.22l-1.86-.06.03-.43q1.67-.28 2.54-.28.87 0 1.18.4.31.4.31.87m-1.06-5.43q-.62 0-.96-.38-.34-.39-.34-1.03 0-.63.36-1.02t.98-.39q.62 0 1 .39.39.39.39 1.05 0 .67-.4 1.03-.41.35-1.03.35m8.72 19.29q.18 0 .37-.03 1.61-.04 2.69-1.01 1.09-.98 1.09-2.87 0-1.86-2.91-2.7-1.21-.34-2.42-.74-1.21-.4-2.06-1.27-.86-.87-.86-2.26 0-1.99 1.52-3.18 1.52-1.2 3.85-1.2 1.73 0 3.5.62l.56.22v3.57l-.59.21-.13-2.63q-1.79-1.43-3-1.43-1.71 0-2.7 1.01-.99 1.01-.99 2.68 0 .96.85 1.55.85.59 2.06.93 1.21.34 2.42.76t2.06 1.36q.85.95.85 2.47 0 2.05-1.53 3.24-1.53 1.19-4.36 1.19-2.82 0-4.68-1.33v-3.57l.56-.21.16 2.63q.43.81 1.56 1.4 1.13.59 2.13.59m10.04-6.76q0 6.69 5.21 6.69 1.36 0 2.91-.29t1.99-.54l.21.31q-.71.46-2.34.77t-2.97.31q-1.35 0-2.42-.28-1.07-.28-2.19-.99-1.11-.71-1.76-2.23-.66-1.52-.66-3.72 0-4.09 2.11-6.26 2.2-2.27 5.12-2.27 2.91 0 4.45 1.62 1.53 1.61 1.53 4.52 0 .62-.09 1.34h-11.07q-.03.34-.03 1.02m9.36-2.57q0-2.33-1.02-3.8-1.02-1.47-2.79-1.47-2.3 0-3.88 2.01-1.27 1.58-1.58 4.22h9.24q.03-.34.03-.96m10.7 9.7-6.23.03.03-.43 1.61-.22q.31-.03.37-.4h.03v-19.6h-.03q-.06-.4-.37-.43l-1.61-.16-.03-.46 6.23-.03q0 .03.03.46l-2.11.19v20.46l2.11.12q0 .03-.03.47m8.61-1.02v-20.06h-5.33l-.49 4.09-.59-.25.31-3.84h-.03l.06-.25.03-.37.06.03v-.03h14.08l.4 4.46-.62.25-.5-4.09h-5.42v20.49l2.26.12q0 .03-.03.47l-6.2.03q0-.28.03-.43l1.61-.22q.31-.03.37-.4"></path><rect width="98.787" height="35.951" x="-49.393" y="-17.976" fill="none" rx="0" ry="0" transform="translate(93.095 203.365)"></rect></svg></svg>